<svg width="240" height="160" viewBox="0 0 240 160" xmlns="http://www.w3.org/2000/svg"><rect width="240" height="160" rx="24" fill="#fef9c3"/><ellipse cx="120" cy="104" rx="72" ry="28" fill="#fde68a"/><ellipse cx="120" cy="98" rx="60" ry="20" fill="#facc15"/><path d="M64 92c8-10 24-18 56-18s48 8 56 18" stroke="#f97316" stroke-width="3" stroke-linecap="round"/><circle cx="100" cy="94" r="3" fill="#b45309"/><circle cx="120" cy="90" r="3" fill="#b45309"/><circle cx="136" cy="96" r="3" fill="#b45309"/><path d="M82 54c0-10 4-16 4-22" stroke="#ea580c" stroke-width="2" stroke-linecap="round" opacity="0.8"/><path d="M118 50c0-10 4-16 4-22" stroke="#ea580c" stroke-width="2" stroke-linecap="round" opacity="0.8"/><path d="M150 56c0-10 4-16 4-22" stroke="#ea580c" stroke-width="2" stroke-linecap="round" opacity="0.8"/><text x="40" y="36" font-family="system-ui, -apple-system, BlinkMacSystemFont, sans-serif" font-size="14" font-weight="600" fill="#713f12">Soup (placeholder)</text><text x="40" y="54" font-family="system-ui, -apple-system, BlinkMacSystemFont, sans-serif" font-size="11" fill="#a16207">Replace with real photo later</text></svg>