<svg width="160" height="120" viewBox="0 0 160 120" fill="none" xmlns="http://www.w3.org/2000/svg">
  <rect width="160" height="120" rx="16" fill="#ECFEFF"/>
  <rect x="10" y="10" width="140" height="100" rx="14" fill="#E0F2FE"/>
  <circle cx="54" cy="64" r="24" fill="#BFDBFE"/>
  <ellipse cx="54" cy="66" rx="20" ry="10" fill="#F9FAFB"/>
  <circle cx="54" cy="60" r="6" fill="#F97316"/>
  <path d="M42 74C44 79 48 82 54 82C60 82 64 79 66 74" stroke="#1D4ED8" stroke-width="2" stroke-linecap="round"/>
  <rect x="86" y="52" width="40" height="28" rx="12" fill="#FEF9C3" stroke="#FACC15" stroke-width="2"/>
  <path d="M90 60H122" stroke="#FACC15" stroke-width="2" stroke-linecap="round"/>
  <path d="M90 66H116" stroke="#FACC15" stroke-width="2" stroke-linecap="round"/>
  <path d="M126 60C129 60 131.5 62.5 131.5 65.5C131.5 68.5 129 71 126 71H122" stroke="#FACC15" stroke-width="2" stroke-linecap="round"/>
  <rect x="20" y="90" width="120" height="4" rx="2" fill="#BFDBFE"/>
  <text x="80" y="24" text-anchor="middle" fill="#1E3A8A" font-family="system-ui, -apple-system, BlinkMacSystemFont, 'SF Pro Display', sans-serif" font-size="10" font-weight="600">South Indian</text>
</svg>