<svg width="260" height="260" viewBox="0 0 260 260" xmlns="http://www.w3.org/2000/svg"><rect width="260" height="260" rx="24" fill="#f9fafb"/><rect x="24" y="24" width="64" height="64" fill="#0f172a" rx="8"/><rect x="172" y="24" width="64" height="64" fill="#0f172a" rx="8"/><rect x="24" y="172" width="64" height="64" fill="#0f172a" rx="8"/><rect x="172" y="172" width="64" height="64" fill="#0f172a" rx="8"/>
<rect x="40" y="40" width="32" height="32" fill="#f9fafb" rx="4"/>
<rect x="188" y="40" width="32" height="32" fill="#f9fafb" rx="4"/>
<rect x="40" y="188" width="32" height="32" fill="#f9fafb" rx="4"/>
<rect x="188" y="188" width="32" height="32" fill="#f9fafb" rx="4"/>
<rect x="108" y="24" width="44" height="20" fill="#0f172a" rx="4"/>
<rect x="108" y="216" width="44" height="20" fill="#0f172a" rx="4"/>
<rect x="80" y="92" width="24" height="24" fill="#0f172a"/>
<rect x="116" y="92" width="16" height="16" fill="#0f172a"/>
<rect x="144" y="92" width="20" height="24" fill="#0f172a"/>
<rect x="92" y="124" width="16" height="16" fill="#0f172a"/>
<rect x="120" y="124" width="24" height="24" fill="#0f172a"/>
<rect x="152" y="132" width="16" height="16" fill="#0f172a"/>
<rect x="84" y="152" width="20" height="20" fill="#0f172a"/>
<rect x="116" y="156" width="16" height="16" fill="#0f172a"/>
<rect x="144" y="156" width="24" height="20" fill="#0f172a"/>
<text x="130" y="242" text-anchor="middle" font-family="system-ui, -apple-system, BlinkMacSystemFont, sans-serif" font-size="11" fill="#4b5563">Demo QR · Not real payment</text></svg>